<svg width="42" height="38" viewBox="0 0 42 38" fill="none" xmlns="http://www.w3.org/2000/svg">
<g clip-path="url(#clip0_8_487)">
<path d="M5.74656 28.7259C7.28673 29.8002 9.78384 29.8002 11.324 28.7259C12.8641 27.6516 12.8641 25.9098 11.324 24.8355C9.78384 23.7612 7.28673 23.7612 5.74656 24.8355C4.20639 25.9098 4.20639 27.6516 5.74656 28.7259Z" fill="#A4074D"/>
<path d="M21.7322 14.1371C24.0425 15.7485 27.7881 15.7485 30.0984 14.1371C32.4086 12.5256 32.4086 9.91303 30.0984 8.3016C27.7881 6.69016 24.0425 6.69016 21.7322 8.3016C19.422 9.91303 19.422 12.5256 21.7322 14.1371Z" fill="#A4074D"/>
<path d="M13.2464 21.4314C15.1716 22.7742 18.293 22.7742 20.2182 21.4314C22.1434 20.0885 22.1434 17.9113 20.2182 16.5684C18.293 15.2256 15.1716 15.2256 13.2464 16.5684C11.3212 17.9113 11.3212 20.0885 13.2464 21.4314Z" fill="#A4074D"/>
<path d="M0.866345 20.4588C2.02147 21.2645 3.8943 21.2645 5.04943 20.4588C6.20455 19.6531 6.20455 18.3468 5.04943 17.541C3.8943 16.7353 2.02147 16.7353 0.866345 17.541C-0.288782 18.3468 -0.288781 19.6531 0.866345 20.4588Z" fill="#A4074D"/>
<path d="M13.2464 5.87008C15.1716 7.21294 18.293 7.21294 20.2182 5.87008C22.1434 4.52722 22.1434 2.35001 20.2182 1.00715C18.293 -0.335716 15.1716 -0.335717 13.2464 1.00715C11.3212 2.35001 11.3212 4.52722 13.2464 5.87008Z" fill="#A4074D"/>
<path d="M5.74655 13.1646C7.28672 14.2389 9.78383 14.2389 11.324 13.1646C12.8641 12.0903 12.8641 10.3485 11.324 9.27422C9.78383 8.19993 7.28672 8.19993 5.74655 9.27422C4.20638 10.3485 4.20639 12.0903 5.74655 13.1646Z" fill="#A4074D"/>
<path d="M13.2464 36.9929C15.1716 38.3357 18.293 38.3357 20.2182 36.9929C22.1434 35.65 22.1434 33.4728 20.2182 32.1299C18.293 30.7871 15.1716 30.7871 13.2464 32.1299C11.3212 33.4728 11.3212 35.65 13.2464 36.9929Z" fill="#A4074D"/>
<path d="M31.9011 21.9179C34.2114 23.5293 37.9571 23.5293 40.2673 21.9179C42.5776 20.3065 42.5776 17.6938 40.2673 16.0824C37.9571 14.4709 34.2114 14.4709 31.9011 16.0824C29.5909 17.6938 29.5909 20.3065 31.9011 21.9179Z" fill="#A4074D"/>
<path d="M21.7322 29.6983C24.0425 31.3098 27.7881 31.3098 30.0984 29.6983C32.4086 28.0869 32.4086 25.4743 30.0984 23.8628C27.7881 22.2514 24.0425 22.2514 21.7322 23.8628C19.422 25.4743 19.422 28.0869 21.7322 29.6983Z" fill="#A4074D"/>
</g>
<defs>
<clipPath id="clip0_8_487">
<rect width="42" height="38" fill="white"/>
</clipPath>
</defs>
</svg>
